<svg width="108" height="100" viewBox="0 0 108 100" fill="none" xmlns="http://www.w3.org/2000/svg">
<path d="M41.4999 91.6667H66.4999C87.3333 91.6667 95.6666 83.3333 95.6666 62.5V37.5C95.6666 16.6666 87.3333 8.33331 66.4999 8.33331H41.4999C20.6666 8.33331 12.3333 16.6666 12.3333 37.5V62.5C12.3333 83.3333 20.6666 91.6667 41.4999 91.6667Z" stroke="#D62424" stroke-width="1.5" stroke-linecap="round" stroke-linejoin="round"/>
<path d="M15.125 78.9583L35.6667 65.1667C38.9583 62.9583 43.7083 63.2083 46.6667 65.75L48.0417 66.9583C51.2917 69.75 56.5417 69.75 59.7917 66.9583L77.125 52.0833C80.375 49.2917 85.625 49.2917 88.875 52.0833L95.6667 57.9167M41.5 41.6667C43.7101 41.6667 45.8298 40.7887 47.3926 39.2259C48.9554 37.6631 49.8333 35.5435 49.8333 33.3333C49.8333 31.1232 48.9554 29.0036 47.3926 27.4408C45.8298 25.878 43.7101 25 41.5 25C39.2899 25 37.1702 25.878 35.6074 27.4408C34.0446 29.0036 33.1667 31.1232 33.1667 33.3333C33.1667 35.5435 34.0446 37.6631 35.6074 39.2259C37.1702 40.7887 39.2899 41.6667 41.5 41.6667Z" stroke="#D92626" stroke-width="1.5" stroke-linecap="round" stroke-linejoin="round"/>
</svg>
