<svg width="108" height="100" viewBox="0 0 108 100" fill="none" xmlns="http://www.w3.org/2000/svg">
<path d="M14.4999 29.625H93.4999M39.4999 8.79165V29.0416M68.4999 8.79165V27.1666M95.6666 62.5V37.5C95.6666 16.6666 87.3333 8.33331 66.4999 8.33331H41.4999C20.6666 8.33331 12.3333 16.6666 12.3333 37.5V62.5C12.3333 83.3333 20.6666 91.6667 41.4999 91.6667H66.4999C87.3333 91.6667 95.6666 83.3333 95.6666 62.5Z" stroke="#E1A2A2" stroke-width="1.5" stroke-linecap="round" stroke-linejoin="round"/>
<path d="M44.625 60.2083V55.2083C44.625 48.7916 49.1667 46.1666 54.7083 49.375L59.0417 51.875L63.375 54.375C68.9167 57.5833 68.9167 62.8333 63.375 66.0416L59.0417 68.5416L54.7083 71.0416C49.1667 74.25 44.625 71.625 44.625 65.2083V60.2083Z" stroke="#FF9A9A" stroke-width="1.5" stroke-miterlimit="10" stroke-linecap="round" stroke-linejoin="round"/>
</svg>
